<?xml version="1.0" encoding="UTF-8"?>
<!--Generator: Apple Native CoreSVG 175.5-->
<!DOCTYPE svg
PUBLIC "-//W3C//DTD SVG 1.1//EN"
       "http://www.w3.org/Graphics/SVG/1.1/DTD/svg11.dtd">
<svg version="1.1" xmlns="http://www.w3.org/2000/svg" xmlns:xlink="http://www.w3.org/1999/xlink" width="20.918" height="20.9282">
 <g>
  <rect height="20.9282" opacity="0" width="20.918" x="0" y="0"/>
  <path d="M5.09619 11.5664C4.68604 11.5664 4.37842 11.2588 4.37842 10.8486C4.37842 10.4487 4.68604 10.1411 5.09619 10.1411L9.74121 10.1411L9.74121 3.9375C9.74121 3.5376 10.0488 3.22998 10.4487 3.22998C10.8486 3.22998 11.1665 3.5376 11.1665 3.9375L11.1665 10.8486C11.1665 11.2588 10.8486 11.5664 10.4487 11.5664ZM10.459 20.918C16.1807 20.918 20.918 16.1704 20.918 10.459C20.918 4.7373 16.1704 0 10.4487 0C4.7373 0 0 4.7373 0 10.459C0 16.1704 4.74756 20.918 10.459 20.918Z" fill="#000000" fill-opacity="0.85"/>
 </g>
</svg>
